<?xml version="1.0" standalone="no"?>
<!DOCTYPE svg PUBLIC "-//W3C//DTD SVG 20010904//EN"
 "http://www.w3.org/TR/2001/REC-SVG-20010904/DTD/svg10.dtd">
<svg version="1.0" xmlns="http://www.w3.org/2000/svg"
 width="500.000000pt" height="500.000000pt" viewBox="0 0 500.000000 500.000000"
 preserveAspectRatio="xMidYMid meet">

<g transform="translate(0.000000,500.000000) scale(0.100000,-0.100000)"
fill="#000000" stroke="none">
<path d="M2778 4268 c-41 -94 -68 -179 -69 -217 0 -23 -1 -24 -9 -6 -7 18 -8
18 -15 -7 l-7 -27 -39 20 c-22 11 -44 17 -50 14 -5 -4 -25 -38 -45 -77 -26
-51 -39 -68 -50 -64 -9 3 -19 6 -24 6 -4 0 -10 14 -14 31 -7 37 -85 119 -113
119 -10 0 -35 -8 -55 -19 l-37 -18 -20 23 c-24 28 -46 31 -59 8 -6 -11 -24
-17 -53 -18 -36 -1 -50 4 -76 28 -26 23 -33 26 -33 13 0 -21 -4 -21 -37 0
l-26 17 6 -39 c4 -22 10 -50 13 -63 5 -18 1 -24 -27 -36 -35 -15 -72 -57 -89
-102 -8 -21 -7 -31 5 -44 15 -16 13 -19 -22 -37 -71 -37 -79 -102 -17 -151 19
-15 34 -34 34 -43 0 -28 25 -48 71 -54 40 -6 49 -4 78 21 25 21 35 24 41 14
12 -19 66 -14 106 9 19 12 37 21 39 21 2 0 10 -20 18 -45 l16 -45 -27 14 c-15
7 -45 17 -66 20 l-39 8 17 -27 c10 -15 16 -28 14 -29 -2 -1 -39 -10 -83 -19
-44 -9 -144 -40 -221 -69 l-142 -52 14 -39 c17 -49 17 -47 -1 -47 -25 0 -56
-39 -54 -68 4 -57 2 -60 -45 -55 -35 4 -53 0 -80 -17 -59 -36 -46 -80 38 -125
57 -30 100 -32 145 -4 34 21 36 21 100 4 36 -10 84 -25 105 -33 l39 -15 -68
-19 c-66 -18 -68 -18 -119 0 -68 26 -135 18 -153 -18 -14 -26 -9 -100 8 -132
13 -24 59 -23 113 2 45 20 96 71 96 95 0 19 24 30 92 44 48 10 61 10 87 -4 35
-18 35 -17 21 -66 -9 -32 -15 -37 -48 -42 -37 -7 -158 -75 -148 -85 3 -2 12 1
20 7 12 10 23 10 53 1 56 -18 60 -27 15 -35 -28 -4 -49 -2 -70 9 -27 14 -34
14 -71 -2 -22 -9 -41 -21 -41 -25 0 -4 17 -15 37 -23 21 -8 45 -19 53 -24 8
-6 31 -17 50 -27 19 -9 49 -23 66 -31 27 -13 47 -14 128 -5 85 9 101 14 135
41 33 26 41 29 51 17 15 -18 83 -42 142 -50 l47 -6 -12 -34 c-8 -22 -32 -48
-74 -79 -38 -28 -65 -56 -69 -71 -7 -30 18 -75 42 -75 21 0 24 6 -100 -288
-58 -139 -106 -261 -106 -270 0 -10 6 -26 13 -36 12 -16 15 -16 57 3 25 11 78
23 118 27 l72 7 0 -75 c0 -73 1 -76 28 -87 87 -34 174 -36 255 -4 32 13 40 14
47 3 6 -10 10 -8 15 11 9 31 63 76 70 57 2 -7 11 -39 20 -71 9 -31 21 -55 26
-52 5 3 27 37 49 75 22 38 55 83 72 101 38 38 115 75 175 85 36 5 45 3 67 -19
14 -15 26 -36 27 -49 0 -23 0 -23 10 2 18 44 -6 122 -65 202 -29 40 -88 123
-132 183 -125 172 -228 324 -223 329 3 3 27 -1 54 -9 26 -8 63 -15 81 -15 30
0 34 4 49 50 9 27 14 54 10 59 -9 15 -74 31 -127 31 -45 0 -69 12 -49 25 6 3
20 20 32 38 l22 32 -29 -28 c-17 -15 -34 -24 -39 -20 -4 5 -5 3 -1 -4 3 -6 2
-14 -4 -18 -6 -4 -8 -11 -4 -16 3 -5 2 -8 -3 -7 -4 1 -32 -11 -62 -26 -65 -34
-116 -32 -204 4 -71 30 -59 40 48 40 101 1 146 11 235 54 39 19 68 30 65 25
-4 -5 -1 -9 6 -9 7 0 -3 -16 -22 -36 -18 -20 -27 -35 -19 -32 8 2 29 23 45 46
17 22 35 41 40 41 6 1 31 -20 55 -45 52 -53 129 -94 180 -94 38 0 80 23 80 44
0 23 -54 64 -168 129 -110 63 -112 64 -92 82 19 17 21 17 56 -11 56 -45 88
-64 107 -64 25 0 21 20 -10 52 l-28 29 33 25 c61 48 79 113 38 132 -42 19 -44
68 -4 129 29 45 55 70 63 61 2 -2 -17 -34 -42 -72 -24 -37 -42 -70 -39 -73 2
-2 28 34 57 81 37 61 60 88 77 93 13 3 60 -2 104 -12 58 -14 85 -16 96 -8 29
18 25 44 -11 82 -19 20 -40 52 -46 72 -6 20 -22 42 -35 49 l-24 12 29 64 c36
82 59 158 51 171 -4 6 -119 67 -257 136 -137 69 -258 132 -267 139 -15 12 -14
19 12 98 15 47 31 103 34 125 l7 40 -37 -60 c-57 -94 -105 -156 -116 -149 -5
4 -3 13 6 23 23 25 71 135 96 221 12 41 31 92 42 113 32 64 13 53 -53 -30 -68
-86 -113 -153 -106 -159 2 -2 20 22 40 53 20 32 46 69 59 83 13 14 19 20 14
13 -4 -7 -6 -20 -2 -28 3 -9 2 -14 -2 -11 -4 2 -38 -57 -74 -132 -37 -75 -59
-126 -48 -112 11 14 40 71 66 128 26 56 49 100 51 99 2 -2 -6 -35 -18 -73 -34
-113 -95 -202 -121 -176 -9 9 -7 26 5 69 11 37 18 109 20 201 3 78 3 142 2
142 -1 0 -18 -37 -37 -82z m7 -247 c-8 -26 -17 -66 -19 -89 -2 -24 -7 -46 -11
-50 -4 -4 -6 2 -5 13 4 32 1 47 -9 41 -4 -3 -4 11 0 32 10 47 31 199 33 234 1
14 4 24 9 21 4 -2 8 6 9 19 1 13 4 -21 5 -76 3 -70 -1 -112 -12 -145z m-30
108 c-7 -41 -18 -99 -23 -129 l-9 -55 -2 60 c-1 52 35 212 45 202 2 -2 -3 -37
-11 -78z m-759 -86 c-3 -3 4 -17 15 -31 11 -14 16 -29 11 -34 -15 -15 -40 2
-47 30 -3 15 -8 35 -11 45 -5 16 -3 17 16 7 12 -6 19 -14 16 -17z m64 -26 c0
-5 -9 -2 -20 8 -11 10 -20 25 -20 34 1 12 5 10 20 -8 11 -13 20 -28 20 -34z
m169 17 c15 -19 19 -36 16 -58 -4 -22 -3 -27 4 -16 15 22 21 9 29 -63 l8 -65
-23 16 c-27 19 -81 117 -84 153 -6 65 14 78 50 33z m-204 -14 c10 -11 16 -20
13 -20 -3 0 -13 9 -23 20 -10 11 -16 20 -13 20 3 0 13 -9 23 -20z m384 -19
c37 -47 40 -91 10 -141 -28 -47 -60 -80 -76 -80 -18 0 -17 26 2 34 8 3 12 12
9 20 -3 8 0 17 7 22 8 4 10 3 5 -4 -5 -8 -2 -10 8 -6 23 9 19 21 -9 28 -28 7
-32 23 -10 52 8 10 14 24 15 29 0 6 -10 -5 -21 -22 -12 -18 -25 -30 -30 -27
-5 3 -9 -5 -9 -18 0 -16 3 -19 9 -10 7 11 9 11 13 0 6 -14 -18 -43 -25 -30
-12 20 -18 72 -8 72 6 0 11 7 11 15 0 8 -6 12 -14 9 -8 -3 -16 4 -20 19 -3 14
-8 32 -11 39 -7 19 29 36 77 37 31 1 41 -5 67 -38z m-249 10 c13 -25 13 -60
-1 -100 -9 -24 -14 -29 -20 -19 -6 9 -9 2 -9 -20 0 -20 -4 -31 -10 -27 -10 6
-13 -5 -11 -35 0 -12 -1 -12 -6 -1 -4 10 -7 10 -13 2 -4 -7 -7 5 -8 25 -1 20
-11 55 -22 78 -26 56 -25 70 8 95 35 26 78 27 92 2z m481 3 c20 -10 28 -21 25
-32 -36 -126 -49 -227 -36 -284 7 -26 18 -52 26 -59 8 -6 14 -18 14 -26 0 -11
-6 -10 -26 6 -15 12 -33 21 -40 21 -11 0 -13 9 -8 38 3 20 1 49 -5 64 -8 20
-7 29 5 38 35 30 -3 110 -53 110 -13 0 -23 2 -23 5 0 8 40 85 58 113 17 26 24
27 63 6z m299 -51 c-20 -63 -91 -193 -106 -193 -30 0 -22 26 35 115 34 51 64
102 67 112 4 10 -20 -23 -52 -74 -76 -118 -93 -140 -93 -127 -2 23 142 225
151 216 7 -7 6 -24 -2 -49z m-237 -40 c5 -51 4 -59 -19 -79 -22 -21 -24 -22
-24 -4 0 10 -3 26 -7 36 -4 11 -3 15 4 11 7 -4 13 14 18 48 8 69 20 64 28 -12z
m-705 35 c-2 -7 2 -14 7 -14 6 -1 9 3 7 9 -2 6 4 4 13 -3 32 -27 59 -120 35
-120 -7 0 -7 -6 0 -19 7 -13 7 -22 0 -26 -5 -3 -10 0 -10 7 0 7 -10 0 -21 -17
-12 -16 -19 -23 -16 -13 3 9 -3 24 -14 34 -10 9 -19 13 -19 9 0 -5 -5 -4 -12
3 -7 7 -19 12 -27 11 -9 0 -5 -5 9 -11 14 -6 28 -11 32 -10 3 1 12 -5 18 -13
9 -11 10 -15 1 -15 -7 0 -10 -4 -7 -8 3 -5 -10 -9 -29 -9 -19 0 -32 4 -29 9 3
4 -3 5 -12 1 -13 -5 -15 -3 -9 8 4 8 5 11 0 7 -10 -10 -55 46 -55 69 0 28 11
35 25 16 9 -13 14 -13 20 -3 5 8 4 11 -2 7 -6 -4 -14 0 -17 9 -7 19 23 63 44
64 8 0 24 7 34 15 24 18 38 19 34 3z m226 -95 c5 -16 1 -25 -14 -33 -11 -6
-17 -16 -14 -22 5 -8 1 -9 -12 -4 -14 5 -16 4 -8 -4 6 -6 19 -8 28 -4 14 5 15
9 4 15 -9 6 -9 9 -1 9 23 0 23 -19 2 -65 -19 -39 -25 -46 -48 -43 -24 3 -26 6
-27 58 -1 38 7 73 24 113 l25 58 18 -28 c9 -15 20 -38 23 -50z m516 20 c0 -13
-4 -23 -10 -23 -5 0 -10 11 -10 24 0 13 -3 33 -6 43 -6 16 -5 16 9 -2 9 -11
17 -30 17 -42z m93 30 c3 -5 -10 -34 -28 -66 -30 -54 -33 -56 -34 -30 -4 59
-3 74 9 88 13 16 46 20 53 8z m-308 -30 c34 -6 75 -39 75 -61 0 -23 -31 -52
-55 -52 -12 0 -36 -5 -53 -11 -16 -6 -47 -9 -69 -7 -37 4 -38 4 -12 15 30 13
35 43 6 38 -15 -3 -17 -1 -7 10 6 8 17 12 23 9 7 -2 17 8 24 22 12 25 11 26
-6 10 -27 -24 -32 -19 -13 14 13 23 22 29 37 24 11 -3 34 -8 50 -11z m922
-319 c-5 -31 -59 -166 -77 -194 -8 -12 -11 -13 -19 -1 -6 10 -10 10 -16 2 -4
-8 -36 -11 -96 -9 -82 2 -103 8 -80 22 17 11 91 157 91 180 0 30 -77 125 -108
133 -18 4 -33 -3 -65 -35 -23 -22 -51 -43 -62 -46 -12 -3 -29 -21 -40 -38 -19
-32 -20 -32 -23 -9 -2 15 6 33 22 50 26 27 26 28 8 44 -23 21 -88 22 -122 2
-14 -8 -36 -14 -50 -14 -19 0 -12 5 25 20 69 28 74 35 43 65 l-26 26 31 54 31
54 269 -138 269 -137 -5 -31z m-1123 212 c75 -73 93 -106 58 -106 -22 0 -65
43 -55 55 5 4 -1 5 -11 1 -17 -6 -17 -5 -5 10 13 16 12 16 -10 5 -19 -11 -26
-10 -38 2 -14 14 -32 107 -21 107 3 0 40 -33 82 -74z m19 61 c3 -7 -3 -13 -14
-14 -15 -1 -16 1 -6 12 15 18 14 18 20 2z m413 -11 c11 -46 -14 -68 -67 -57
-15 3 -16 41 -2 60 20 30 61 28 69 -3z m-98 -94 l2 57 25 -25 c23 -23 24 -28
14 -70 -12 -45 -29 -69 -29 -39 0 9 -4 14 -9 11 -15 -10 -21 22 -19 102 l2 77
6 -85 c5 -74 7 -77 8 -28z m-545 31 c6 -30 -9 -57 -25 -47 -5 3 -17 0 -26 -8
-15 -11 -15 -11 -5 3 7 9 9 20 5 24 -4 5 2 5 13 2 18 -6 18 -6 3 6 -12 9 -14
18 -7 30 15 26 36 20 42 -10z m-218 1 c13 -9 44 -22 67 -29 28 -9 35 -14 20
-14 -19 -1 -21 -3 -10 -15 7 -7 19 -11 25 -9 7 3 13 -2 13 -10 0 -16 -20 -27
-51 -27 -11 0 -35 -11 -54 -25 -25 -19 -40 -24 -60 -19 -64 16 -74 102 -16
141 40 27 36 27 66 7z m860 -40 c-18 -60 -18 -59 0 -44 21 18 19 -3 -2 -23
-17 -15 -18 -13 -21 29 -2 30 3 52 15 68 10 13 19 23 21 22 1 -2 -5 -25 -13
-52z m69 35 c6 -8 24 -21 39 -29 26 -13 27 -15 11 -27 -40 -29 -81 -3 -70 43
4 16 3 23 -3 20 -5 -4 -12 -2 -15 3 -10 15 26 6 38 -10z m-576 -29 c-2 -5 -9
-6 -17 -1 -9 6 -11 16 -7 27 7 18 8 18 17 1 6 -10 9 -22 7 -27z m259 -8 c-58
-54 -82 -58 -102 -19 -8 16 -15 32 -15 34 0 1 21 3 48 4 26 0 56 4 67 9 42 18
43 9 2 -28z m73 -17 c0 -26 -7 -59 -15 -75 -18 -35 -71 -75 -80 -60 -4 6 -11
7 -17 4 -6 -4 -5 -10 3 -15 11 -7 10 -9 -3 -9 -9 0 -20 5 -23 10 -4 6 -11 7
-17 4 -7 -5 -4 -12 7 -21 14 -9 15 -13 4 -13 -10 -1 -9 -5 5 -15 11 -8 15 -15
8 -15 -6 0 -9 -7 -6 -14 5 -13 2 -13 -20 -3 -31 14 -41 36 -21 43 8 4 15 10
15 15 0 4 -6 6 -14 3 -10 -4 -14 1 -13 15 1 14 5 17 13 10 8 -6 14 -6 18 0 3
5 2 11 -4 13 -6 2 -6 8 0 18 8 13 10 13 10 -2 0 -21 16 -32 26 -17 5 8 3 9 -6
4 -10 -6 -12 -4 -7 8 3 9 1 17 -4 19 -13 4 6 58 20 58 5 0 31 18 56 40 25 22
50 40 56 40 5 0 9 -20 9 -45z m206 19 c-4 -9 -9 -15 -11 -12 -3 3 -3 13 1 22
4 9 9 15 11 12 3 -3 3 -13 -1 -22z m-557 -32 c-5 -16 -32 -52 -58 -81 -44 -48
-52 -52 -86 -49 -42 3 -57 23 -26 33 22 7 37 39 32 69 -2 14 2 18 17 14 16 -5
20 -1 17 13 -4 22 -1 23 24 9 13 -6 24 -5 37 5 11 8 27 15 36 15 14 0 15 -4 7
-28z m96 -5 c33 -33 60 -103 52 -135 -3 -13 -7 -9 -16 12 -12 30 -61 93 -68
88 -2 -2 -17 -1 -33 3 -22 5 -27 11 -23 23 18 51 43 54 88 9z m393 -99 l-3
-43 -18 33 c-17 31 -17 34 0 83 l18 51 3 -41 c2 -23 2 -60 0 -83z m97 102 c3
-6 -1 -13 -10 -16 -19 -8 -30 0 -20 15 8 14 22 14 30 1z m345 -18 c20 -16 21
-22 11 -43 -10 -20 -10 -22 1 -7 13 15 16 13 41 -13 15 -16 27 -36 27 -43 0
-8 -21 -53 -46 -100 -48 -91 -72 -116 -201 -205 -65 -46 -77 -48 -63 -11 1 3
2 8 1 12 0 4 5 5 12 2 8 -3 46 30 90 75 71 74 93 111 67 111 -5 0 -10 -5 -10
-11 0 -5 -23 -35 -51 -65 -37 -38 -55 -51 -64 -44 -12 10 -25 4 -25 -12 0 -5
5 -6 12 -2 7 5 8 3 3 -5 -12 -21 -29 3 -17 25 9 19 1 122 -13 156 -8 19 70
118 93 118 7 0 30 18 52 40 45 46 49 47 80 22z m-1082 -24 c2 -20 -4 -31 -25
-44 -15 -10 -43 -31 -61 -46 -28 -24 -39 -28 -70 -22 -36 6 -62 27 -62 48 1
19 86 66 111 62 13 -2 30 1 37 6 18 15 15 -2 -5 -26 -18 -21 -18 -21 5 -2 12
11 22 28 22 38 0 32 44 19 48 -14z m352 -2 c0 -7 -7 -21 -15 -32 -14 -18 -14
-18 -16 6 l-1 25 -8 -25 c-5 -15 -8 -18 -9 -8 -1 9 -4 23 -7 31 -3 10 1 17 13
19 24 6 43 -1 43 -16z m534 9 c18 -14 19 -16 3 -27 -9 -7 -23 -33 -30 -58
l-13 -45 -18 27 c-14 21 -15 31 -6 48 6 11 15 18 20 15 6 -4 7 1 3 11 -4 12
-3 15 5 10 15 -9 34 2 27 15 -9 14 -43 -8 -58 -38 l-14 -26 -15 31 c-15 28
-14 31 6 40 30 15 68 14 90 -3z m-170 -73 c4 -4 6 7 4 23 -2 24 1 31 18 33 17
2 30 -11 62 -65 66 -112 73 -175 35 -313 l-15 -55 -12 30 c-7 17 -16 52 -19
78 -4 27 -12 56 -17 65 -10 15 -10 14 -6 -3 12 -45 35 -190 31 -194 -3 -2 -5
4 -6 15 0 18 -1 18 -9 -1 -6 -14 -9 0 -11 50 -2 60 -3 63 -6 21 l-4 -49 -30
29 c-16 15 -29 35 -29 44 0 9 -9 34 -20 55 -15 28 -19 51 -15 75 3 19 6 58 6
85 1 30 7 57 17 68 17 19 12 30 -10 22 -11 -5 -16 -24 -17 -78 -1 -40 -4 -87
-7 -104 -7 -39 3 -86 16 -78 6 3 10 0 10 -7 0 -7 3 -23 6 -35 5 -19 2 -23 -16
-23 -18 0 -21 4 -16 24 7 30 -25 110 -51 124 -17 10 -17 12 5 34 12 14 22 35
22 49 0 13 7 32 14 42 7 9 11 28 8 43 -3 17 3 33 19 50 l24 26 6 -36 c3 -20 9
-40 13 -44z m-521 54 c40 -17 67 -46 63 -70 -1 -10 11 -31 26 -47 40 -39 35
-73 -9 -77 -25 -3 -38 3 -58 25 -14 15 -36 39 -49 53 -47 50 -60 79 -48 105
13 28 29 31 75 11z m369 -26 c14 -10 28 -16 32 -12 4 3 4 -1 0 -11 -3 -9 -1
-17 4 -17 17 0 26 -68 14 -95 -17 -37 -72 -60 -134 -56 -9 1 -30 13 -45 29
l-27 27 59 6 c59 6 59 6 15 9 -26 1 -35 5 -22 7 20 4 26 12 20 31 -2 4 -6 6
-10 5 -5 -2 -8 3 -8 10 0 8 -3 7 -10 -3 -6 -9 -5 -17 3 -23 8 -6 4 -7 -11 -4
-12 3 -20 1 -16 -4 8 -14 -10 -11 -32 5 -18 14 -18 15 8 25 15 6 44 28 64 51
41 45 60 49 96 20z m-482 -101 c0 -4 10 -13 23 -19 21 -11 21 -10 3 4 -11 9
-16 16 -10 16 15 -1 40 -24 38 -37 -1 -7 -2 -17 -3 -23 0 -5 -5 -10 -10 -10
-13 0 -70 49 -81 70 -8 14 -5 16 15 12 14 -2 25 -8 25 -13z m110 -35 c12 -19
21 -36 19 -38 -16 -13 -51 -26 -59 -21 -12 8 -13 35 -1 35 5 0 11 9 14 21 5
17 3 18 -10 7 -15 -12 -15 -11 -4 10 6 12 13 22 16 22 2 0 13 -16 25 -36z
m186 -9 c5 13 9 14 15 3 6 -9 -6 -17 -44 -30 -54 -18 -99 -24 -59 -7 13 5 26
18 29 29 5 18 7 18 29 3 22 -14 24 -14 30 2z m-308 -4 c10 -6 0 -12 -30 -19
-72 -19 -75 -27 -17 -52 53 -22 71 -28 99 -29 11 -1 11 -4 2 -13 -7 -7 -12
-29 -12 -49 0 -31 -4 -38 -22 -41 -14 -2 -36 7 -56 24 -41 35 -111 39 -141 9
-11 -11 -22 -17 -24 -13 -2 4 -2 2 -1 -5 2 -6 -6 -23 -17 -37 -26 -32 -32
-145 -12 -195 l15 -35 -40 34 c-23 20 -41 44 -41 57 -1 12 -5 33 -11 48 -13
33 -93 115 -113 115 -9 0 -20 15 -27 35 -12 36 -6 59 13 52 7 -2 19 1 27 8 22
18 174 74 260 95 83 21 128 24 148 11z m52 -41 c11 -11 17 -26 14 -35 -4 -8
-7 -15 -8 -15 -13 0 -113 34 -120 40 -5 5 6 13 25 18 52 15 67 14 89 -8z m140
-2 c23 -17 33 -19 42 -10 15 15 94 16 103 1 4 -6 -1 -17 -11 -25 -11 -9 -14
-13 -7 -10 6 4 23 2 37 -4 19 -7 26 -17 26 -35 0 -47 -17 -65 -61 -65 -28 0
-38 4 -33 12 4 7 3 8 -5 4 -6 -4 -8 -12 -5 -18 4 -6 1 -8 -7 -6 -8 3 -13 11
-11 17 1 7 -2 10 -7 7 -5 -3 -14 1 -21 9 -9 11 -9 19 3 35 11 16 16 18 20 8 4
-9 6 -7 6 5 1 27 -15 20 -39 -15 l-21 -33 3 52 c2 28 1 50 -2 49 -3 -1 -16 8
-29 21 -31 29 -19 30 19 1z m239 -23 c14 -4 21 -3 17 3 -10 17 55 23 80 7 29
-18 41 -54 23 -66 -36 -23 -112 1 -178 56 -41 35 -40 49 2 26 17 -11 43 -22
56 -26z m-255 3 c17 -24 20 -90 6 -123 l-9 -20 -1 20 c-1 14 -5 9 -14 -15 -11
-30 -18 -35 -49 -38 -28 -2 -38 1 -47 18 -12 23 -5 94 8 86 4 -3 6 11 4 30 -4
31 -1 35 29 49 46 19 55 19 73 -7z m756 -1 c0 -2 -10 -12 -22 -23 l-23 -19 19
23 c18 21 26 27 26 19z m221 -47 c93 0 121 -12 134 -57 5 -17 1 -22 -17 -26
-21 -4 -20 -4 4 -6 26 -1 51 -21 27 -21 -7 0 3 -10 22 -23 38 -26 49 -54 24
-64 -10 -3 -50 1 -89 11 -93 21 -106 21 -163 -10 -45 -24 -54 -25 -138 -19
-88 7 -153 24 -92 25 40 0 117 21 117 31 0 5 6 6 14 3 8 -3 23 3 34 14 11 11
23 18 26 15 3 -4 6 -1 6 5 0 16 -4 15 -48 -7 -43 -21 -106 -38 -82 -21 20 13
4 13 -22 -1 -13 -7 -24 -7 -30 -1 -6 6 12 24 51 50 33 22 66 42 73 45 7 2 9 8
5 13 -11 12 -94 -34 -119 -65 -11 -14 -23 -26 -26 -26 -4 0 -6 -3 -5 -7 1 -3
-4 -9 -13 -12 -8 -3 -12 -1 -9 4 3 6 -1 7 -9 4 -9 -3 -13 -11 -10 -16 4 -6 -2
-7 -16 -3 -15 5 -20 4 -16 -4 5 -7 1 -8 -10 -4 -11 4 -15 3 -10 -5 3 -6 3 -13
-2 -16 -5 -3 -9 2 -9 10 0 17 208 173 246 185 14 4 35 6 46 4 11 -3 59 -5 106
-5z m-731 -30 c-8 -5 -19 -10 -25 -10 -5 0 -3 5 5 10 8 5 20 10 25 10 6 0 3
-5 -5 -10z m139 -45 c-2 -30 -2 -30 -9 5 -7 35 -7 35 -9 5 l-1 -30 -18 30
c-19 30 -19 30 2 36 26 7 36 -7 35 -46z m19 30 c-3 -3 -9 2 -12 12 -6 14 -5
15 5 6 7 -7 10 -15 7 -18z m-81 -7 c24 -26 43 -88 42 -133 0 -25 -3 -22 -19
23 -10 30 -23 59 -29 65 -9 9 -10 7 -5 -8 7 -17 6 -18 -8 -7 -13 11 -13 6 3
-25 24 -47 24 -62 0 -60 -11 0 -17 5 -15 9 8 13 -25 67 -56 90 -38 28 -38 36
3 53 45 20 60 18 84 -7z m-536 -27 c26 -26 28 -32 17 -55 -13 -30 -24 -32 -49
-10 -16 15 -19 14 -33 -13 -8 -15 -15 -25 -16 -20 0 11 -40 -31 -40 -43 0 -5
-13 -10 -29 -10 -21 0 -30 6 -35 23 -12 45 -5 70 30 113 33 40 40 44 81 44 36
0 50 -6 74 -29z m287 -5 c-2 -1 -12 -8 -22 -16 -18 -14 -19 -14 -8 6 6 12 8
25 4 30 -4 5 1 2 11 -5 9 -8 16 -14 15 -15z m137 -20 c37 -16 53 -40 59 -86 2
-16 2 -30 1 -30 -1 0 -10 10 -21 22 -19 21 -19 21 1 15 20 -7 20 -7 1 8 -11 8
-25 15 -30 15 -6 0 -4 -5 4 -10 8 -5 11 -10 7 -10 -5 0 1 -12 12 -26 28 -36
26 -49 -8 -73 -48 -35 -83 -28 -140 28 -46 45 -70 79 -38 54 15 -12 48 -13 41
-1 -3 5 -8 7 -12 4 -4 -2 -17 7 -30 20 -18 19 -20 25 -9 30 8 3 18 4 23 2 5
-2 10 2 11 7 1 6 -8 8 -20 7 -35 -6 -5 19 35 28 51 12 76 11 113 -4z m263 -2
c33 -23 46 -52 31 -70 -10 -12 -9 -13 7 -8 10 4 16 4 12 -1 -4 -4 -2 -15 5
-23 10 -13 9 -14 -3 -7 -10 6 -10 2 3 -12 23 -27 9 -66 -32 -88 -29 -14 -31
-14 -43 5 -8 13 -24 20 -43 20 -38 0 -68 20 -60 41 3 8 18 23 33 33 15 10 19
15 8 12 -14 -5 -17 -3 -11 11 3 10 9 32 12 48 11 56 38 69 81 39z m272 12 c0
-2 -8 -10 -17 -17 -16 -13 -17 -12 -4 4 13 16 21 21 21 13z m-1317 -20 c18
-14 24 -32 7 -21 -16 10 -11 -1 7 -16 15 -12 16 -12 8 1 -8 13 -7 13 8 1 22
-18 22 -32 0 -25 -14 5 -15 4 -4 -4 22 -16 5 -72 -22 -72 -42 0 -117 69 -117
107 0 37 76 57 113 29z m410 -3 c-6 -16 -5 -16 10 -4 15 12 20 11 35 -3 10 -9
27 -16 38 -16 10 0 25 -4 33 -9 16 -10 8 -41 -11 -41 -9 0 -8 3 2 10 9 6 10
10 3 10 -13 0 -26 -17 -29 -37 -2 -9 3 -10 17 -3 22 12 25 4 7 -20 -7 -9 0 -2
15 14 l28 31 -7 -30 c-10 -44 -31 -82 -49 -89 -57 -22 -107 17 -109 86 0 24 3
54 8 67 6 17 5 22 -4 16 -9 -6 -9 -3 -1 14 14 25 23 28 14 4z m171 -15 c-3 -5
-10 -6 -15 -3 -5 4 -9 -2 -9 -11 0 -14 -3 -15 -12 -6 -10 10 -10 14 0 21 17
10 42 10 36 -1z m325 -28 c0 -10 -3 -8 -9 5 -12 27 -12 43 0 25 5 -8 9 -22 9
-30z m-528 -21 c-5 -13 -10 -19 -10 -12 -1 15 10 45 15 40 3 -2 0 -15 -5 -28z
m-21 -14 c0 -20 -32 -27 -49 -10 -14 13 -13 16 4 29 21 15 45 5 45 -19z m220
15 c0 -5 -7 -7 -15 -4 -8 4 -15 8 -15 10 0 2 7 4 15 4 8 0 15 -4 15 -10z m337
-32 c-3 -7 -5 -2 -5 12 0 14 2 19 5 13 2 -7 2 -19 0 -25z m-948 -38 c21 -11
22 -14 8 -22 -22 -12 -87 38 -87 66 0 18 2 17 28 -6 15 -14 38 -31 51 -38z
m121 3 c0 -24 -15 -29 -39 -14 -12 8 -12 14 -1 41 13 30 14 31 27 14 7 -10 13
-28 13 -41z m222 5 c-10 -10 -62 10 -62 24 0 5 5 6 10 3 6 -3 10 2 10 11 0 15
4 14 25 -6 14 -13 21 -28 17 -32z m598 -4 c0 -19 -16 -18 -24 2 -11 27 -7 37
9 24 8 -7 15 -19 15 -26z m445 21 c44 -4 81 -8 84 -10 2 -2 -7 -20 -19 -40
l-22 -36 -44 41 c-60 56 -68 50 -11 -8 36 -37 47 -55 47 -80 0 -25 6 -35 30
-47 35 -18 36 -25 13 -68 l-16 -32 -14 33 c-13 31 -28 47 -17 17 7 -17 -14
-75 -27 -75 -4 0 -22 20 -39 45 -24 34 -46 52 -93 74 -35 15 -70 39 -78 52
-21 32 -31 76 -24 100 8 24 27 15 84 -43 25 -25 38 -34 32 -21 -6 12 -27 35
-46 50 -36 29 -37 42 -2 44 21 1 20 2 -3 10 -26 8 -20 8 165 -6z m-1476 -12
c25 -22 19 -63 -10 -63 -10 0 -21 -5 -25 -12 -5 -8 -2 -9 9 -5 10 3 17 2 17
-3 0 -11 -21 -13 -44 -4 -8 3 -27 21 -41 40 -22 28 -24 38 -15 49 17 21 83 19
109 -2z m517 -28 c12 -25 17 -48 12 -51 -4 -3 -8 -11 -7 -17 0 -8 3 -7 6 2 5
11 7 11 15 0 7 -11 8 -9 4 5 -5 14 -2 17 10 12 8 -3 20 -6 25 -6 8 0 4 -53 -7
-92 -8 -26 -69 -18 -94 11 -3 3 -18 13 -35 21 -24 12 -31 23 -33 52 -2 29 1
39 17 48 12 6 21 16 21 23 0 16 20 37 35 37 5 0 19 -20 31 -45z m489 -13 c-9
-9 -25 19 -24 43 0 16 2 15 15 -8 9 -16 13 -32 9 -35z m-304 24 c5 3 7 10 4
15 -4 5 -1 9 5 9 7 0 9 -8 5 -20 -3 -11 -1 -28 5 -37 10 -16 10 -15 5 5 -7 23
9 31 19 10 4 -7 4 -3 2 9 -10 55 48 22 64 -36 19 -71 -20 -121 -95 -121 -48 0
-79 19 -101 63 -14 26 -14 32 -3 36 23 7 69 58 70 78 1 17 2 17 6 0 2 -9 9
-15 14 -11z m-296 1 c12 -10 14 -16 7 -21 -7 -4 -12 -19 -12 -33 0 -21 -4 -24
-22 -20 -22 6 -22 6 2 -14 l25 -19 -30 11 c-16 6 -38 18 -49 27 -23 22 -47 68
-39 76 12 11 99 6 118 -7z m-509 -37 c27 -41 78 -66 100 -49 6 5 16 28 23 51
l13 43 24 -30 c29 -36 30 -47 5 -69 -24 -22 -98 -35 -86 -16 6 10 4 12 -9 7
-41 -16 -127 51 -112 88 8 22 13 19 42 -25z m273 17 c15 -19 4 -27 -34 -27
-40 0 -50 9 -27 26 22 17 47 17 61 1z m891 -31 c0 -4 -7 -3 -15 4 -8 7 -15 8
-15 2 0 -5 7 -15 15 -22 8 -7 15 -20 15 -29 0 -11 -9 -7 -32 16 -26 27 -29 34
-19 47 10 12 16 13 32 3 10 -6 19 -16 19 -21z m-802 -21 c13 -11 28 -28 34
-38 8 -16 7 -17 -11 -7 -12 6 -21 9 -21 7 0 -6 -161 41 -168 48 -3 3 13 5 36
5 22 0 44 5 48 11 4 7 22 -4 48 -28 40 -37 40 -37 8 -3 -54 60 -39 63 26 5z
m722 35 c0 -5 -12 -10 -26 -10 -14 0 -23 4 -19 10 3 6 15 10 26 10 10 0 19 -4
19 -10z m153 -29 c2 -10 2 -51 -1 -92 l-5 -72 -28 54 c-16 30 -28 71 -29 92 0
34 2 37 29 37 20 0 30 -6 34 -19z m-273 0 c0 -5 -3 -11 -7 -14 -5 -2 -3 -2 4
-1 39 10 58 -72 23 -94 -19 -11 -22 -10 -32 19 -8 23 -13 27 -19 17 -10 -15
-12 -7 -3 16 3 9 11 13 16 10 6 -4 5 2 -1 14 -15 28 -14 42 4 42 8 0 15 -4 15
-9z m105 0 c10 -17 -32 -21 -66 -7 l-34 15 47 1 c26 0 49 -4 53 -9z m283 -23
c6 -17 11 -32 9 -33 -1 -1 -14 -9 -29 -18 l-28 -17 10 26 c6 14 10 36 10 50 0
34 13 30 28 -8z m-52 -51 c-9 -30 -23 -60 -31 -67 -8 -7 -15 -17 -15 -22 0 -6
16 4 35 21 20 17 43 31 53 32 14 0 14 2 -3 8 -18 7 -18 9 7 25 25 16 27 16 63
-9 21 -14 44 -25 52 -25 8 0 11 -4 8 -10 -9 -15 -41 -12 -55 5 -7 8 -20 15
-29 14 -12 0 -13 -2 -2 -6 10 -4 5 -10 -15 -18 l-29 -13 38 5 c32 5 37 3 37
-14 0 -28 -29 -51 -107 -83 -68 -28 -83 -29 -83 -7 0 7 4 6 10 -3 7 -10 10
-11 10 -2 0 7 20 33 45 58 25 25 37 40 26 35 -11 -6 -34 -28 -51 -48 -18 -21
-29 -29 -25 -18 5 11 8 31 7 45 -1 14 1 53 4 87 5 56 8 63 32 71 35 12 37 4
18 -61z m-126 -34 c0 -24 -2 -43 -5 -43 -7 0 -65 117 -65 130 0 6 16 -2 35
-17 30 -24 35 -34 35 -70z m-719 71 c167 -78 207 -101 228 -133 13 -18 19 -32
14 -30 -54 23 -232 115 -246 128 -18 15 -42 51 -34 51 2 0 19 -7 38 -16z m570
-21 c-12 -20 -14 -14 -5 12 4 9 9 14 11 11 3 -2 0 -13 -6 -23z m93 -23 l24
-50 -28 20 c-16 12 -39 34 -50 50 l-21 30 25 0 c21 0 30 -9 50 -50z m-375 -17
c38 -56 39 -67 6 -59 -30 8 -31 1 -5 -42 42 -69 7 -45 -39 26 -27 44 -29 50
-18 85 7 20 15 37 19 37 3 0 20 -21 37 -47z m311 21 c0 -8 -4 -12 -10 -9 -5 3
-10 10 -10 16 0 5 5 9 10 9 6 0 10 -7 10 -16z m-136 -96 c3 -38 29 -88 46 -88
6 0 10 -15 10 -34 0 -26 -5 -35 -22 -39 -12 -4 -25 -3 -28 1 -3 5 -30 20 -62
35 -55 27 -115 88 -103 107 6 10 63 6 74 -6 3 -4 -3 -4 -14 -1 -19 7 -19 7 -1
-8 14 -11 24 -12 39 -4 10 6 17 7 14 2 -3 -4 6 -22 20 -38 l24 -30 -22 43
c-12 24 -22 56 -23 72 -1 15 -5 26 -10 23 -5 -3 -7 0 -5 6 3 7 8 11 12 9 5 -2
13 6 19 16 11 19 12 19 20 -5 5 -13 11 -41 12 -61z m24 58 c3 -12 -1 -17 -10
-14 -7 3 -15 13 -16 22 -3 12 1 17 10 14 7 -3 15 -13 16 -22z m190 -24 c32
-26 42 -41 42 -63 0 -16 -4 -29 -9 -29 -4 0 -25 25 -45 55 -20 30 -40 54 -45
52 -9 -2 -11 3 -11 24 0 13 13 5 68 -39z m-984 22 c49 -17 66 -40 66 -89 0
-17 -9 -27 -40 -39 -72 -29 -92 -20 -104 47 -6 31 -3 41 18 61 20 21 22 26 8
29 -10 3 -12 5 -6 6 6 0 32 -6 58 -15z m71 6 c18 -8 17 -9 -7 -9 -16 -1 -28 4
-28 9 0 12 8 12 35 0z m812 -7 c2 -6 -7 -8 -23 -5 -19 3 -22 7 -12 13 15 10
30 7 35 -8z m-183 -15 c8 -33 7 -58 -3 -58 -13 0 -71 56 -71 69 0 6 15 11 34
11 26 0 35 -5 40 -22z m356 -38 c14 22 24 -13 16 -56 -12 -62 -31 -34 -32 47
-1 41 1 56 3 35 3 -28 7 -36 13 -26z m-949 30 c13 0 10 -32 -5 -53 -13 -16
-15 -15 -25 14 -15 43 -14 52 5 45 9 -3 20 -6 25 -6z m380 -48 c63 -31 134
-71 159 -87 l45 -30 -33 -3 c-24 -2 -47 6 -83 28 -54 35 -154 70 -200 70 -21
0 -29 5 -29 18 0 26 11 62 20 62 4 0 58 -26 121 -58z m386 42 c2 -6 -8 -26
-22 -43 -15 -17 -22 -31 -16 -31 6 0 22 18 37 39 23 36 28 39 53 30 31 -11 72
-69 48 -69 -8 0 -28 -3 -44 -6 -28 -5 -29 -5 -27 33 1 27 0 30 -3 8 -6 -43
-16 -48 -68 -41 -43 7 -46 9 -43 34 2 15 7 30 13 34 6 5 4 8 -5 8 -13 0 -13 1
0 10 19 13 72 8 77 -6z m493 -4 c24 -15 8 -17 -30 -4 -30 11 -32 13 -10 13 14
1 32 -3 40 -9z m-5 -26 c26 -12 27 -14 5 -9 -14 2 -40 5 -57 5 -18 0 -33 5
-33 10 0 15 50 11 85 -6z m106 -21 c-12 -20 -14 -14 -5 12 4 9 9 14 11 11 3
-2 0 -13 -6 -23z m-94 -4 c30 -11 88 -63 105 -92 16 -31 -29 -11 -87 38 -27
23 -59 47 -70 53 -20 11 -20 11 2 12 12 0 34 -5 50 -11z m-63 -12 c17 -13 17
-14 -6 -29 -20 -14 -31 -14 -71 -4 l-48 12 33 16 c41 21 69 22 92 5z m-876
-37 c23 -17 42 -32 42 -34 0 -2 -9 -6 -19 -9 -12 -3 -38 8 -67 29 -62 44 -62
44 -27 44 17 0 47 -12 71 -30z m-64 -12 c46 -30 49 -33 26 -36 -30 -3 -139 53
-119 61 27 11 43 6 93 -25z m109 19 c18 -8 38 -21 45 -30 8 -9 19 -14 27 -11
7 3 16 1 19 -4 3 -5 -9 -9 -27 -10 -23 0 -43 9 -71 34 -43 37 -42 41 7 21z
m538 0 c8 -7 23 -24 33 -39 17 -26 17 -26 -6 -22 -13 2 -16 1 -8 -2 20 -9 60
-46 60 -56 0 -12 -62 -10 -112 6 -25 7 -67 28 -94 46 -27 18 -43 27 -36 19 16
-18 15 -29 -4 -29 -10 0 -14 7 -12 23 2 18 9 22 33 20 l30 -2 -27 10 c-56 21
-31 31 97 37 17 1 37 -4 46 -11z m-712 -34 l46 -27 -32 -8 c-23 -6 -43 -3 -80
13 l-48 21 25 13 c34 19 37 19 89 -12z m1050 -34 c164 -87 234 -139 189 -139
-23 0 -120 50 -182 93 -76 53 -86 59 -86 53 0 -12 185 -127 230 -143 28 -10
50 -21 50 -25 0 -12 -59 -20 -92 -13 -55 12 -88 34 -179 120 -48 46 -98 86
-111 91 -22 7 -22 7 -3 15 35 14 87 -1 184 -52z m-174 2 c9 -18 10 -32 4 -42
-7 -11 -9 -9 -9 7 0 12 -9 32 -21 45 l-21 24 16 -25 c9 -13 16 -32 16 -42 0
-30 -20 -20 -36 18 -12 29 -13 39 -3 45 18 11 38 0 54 -30z m-69 4 c4 -14 4
-29 0 -32 -11 -11 -39 25 -33 41 9 24 26 19 33 -9z m-664 -47 c-22 -29 -45
-63 -51 -75 -10 -20 -66 -41 -78 -29 -7 7 72 111 105 137 14 10 33 19 44 19
16 0 13 -8 -20 -52z m787 3 c-7 -2 -18 4 -26 15 -22 30 -15 39 13 13 16 -15
21 -25 13 -28z m-836 27 c-33 -41 -84 -111 -91 -125 -9 -16 -52 -10 -52 7 0
19 113 130 132 130 15 0 18 -3 11 -12z m135 5 c-19 -44 -63 -120 -72 -125 -6
-4 -24 -8 -39 -8 l-28 0 32 48 c46 68 70 92 92 92 10 0 17 -3 15 -7z m50 -1
c15 -10 -13 -50 -58 -82 -38 -27 -38 -16 0 43 31 49 36 52 58 39z m-288 -57
c-30 -30 -62 -55 -71 -55 -21 0 -79 29 -79 40 0 12 41 36 75 44 l30 7 -34 -35
c-19 -20 -30 -36 -25 -36 6 0 23 14 40 31 29 31 76 58 104 59 8 0 -10 -25 -40
-55z m439 37 c13 -5 11 -8 -9 -13 -38 -11 -118 -10 -125 0 -16 27 75 36 134
13z m263 -37 c57 -20 74 -19 98 5 23 23 34 25 49 7 8 -11 2 -18 -27 -34 -53
-30 -138 -45 -250 -44 -53 0 -113 0 -132 -1 -19 -1 -52 2 -74 6 -37 7 -38 8
-17 22 19 14 32 13 120 -1 83 -14 112 -15 168 -5 38 6 75 16 83 21 11 8 7 8
-15 3 -16 -5 -55 -8 -85 -9 -30 0 -57 -3 -60 -7 -3 -3 -45 0 -94 9 -69 12 -94
12 -114 3 -22 -10 -29 -8 -48 12 l-23 23 87 2 c52 1 113 10 152 21 63 19 66
19 102 1 20 -10 56 -25 80 -34z m-837 35 c4 -6 -11 -10 -37 -10 -31 0 -39 3
-28 10 20 13 57 13 65 0z m-10 -30 c-8 -13 -35 -13 -55 0 -11 7 -5 10 23 10
23 0 36 -4 32 -10z m461 -47 c-6 -6 -46 20 -46 30 0 4 11 0 25 -9 14 -9 24
-19 21 -21z m187 -39 c-3 -9 0 -20 7 -24 9 -6 4 -13 -19 -24 -30 -16 -31 -16
-31 4 0 11 9 29 20 40 24 24 31 25 23 4z m507 -45 l25 -14 -30 -3 c-33 -4
-131 15 -155 30 -25 15 132 3 160 -13z m-423 -15 c-50 -41 -144 -107 -181
-128 -27 -16 -51 -37 -53 -47 -7 -24 -23 -25 -23 -1 0 10 -5 23 -12 30 -9 9
-5 19 18 43 39 41 141 102 155 93 7 -4 9 -3 6 3 -10 17 24 25 41 11 13 -11 15
-10 10 3 -5 14 -3 15 17 5 13 -6 23 -11 22 -12z m310 1 c31 -8 72 -15 90 -15
36 0 39 -6 21 -45 -13 -30 -44 -33 -109 -10 -24 9 -49 13 -57 10 -7 -2 -11 -1
-8 3 3 5 -11 17 -32 26 -35 17 -36 19 -17 32 24 18 40 18 112 -1z m-283 -30
c-3 -14 -9 -49 -13 -78 l-7 -52 -12 40 c-17 57 -15 92 6 104 27 16 33 13 26
-14z m36 -159 c0 -131 -5 -199 -19 -273 -11 -54 -22 -124 -26 -155 -4 -32 -12
-58 -17 -58 -6 0 -8 7 -4 15 3 8 1 15 -4 15 -13 0 -13 156 0 235 5 33 16 132
25 219 9 87 18 163 21 167 18 30 24 -8 24 -165z m63 167 c-7 -2 -13 -12 -13
-20 0 -13 3 -13 15 -3 12 10 15 10 15 -1 0 -11 3 -11 11 1 8 12 9 11 5 -5 -3
-11 -8 -33 -11 -50 -4 -23 -3 -25 4 -10 17 39 26 -75 26 -335 0 -234 -11 -453
-22 -422 -3 6 -9 12 -15 12 -6 0 -8 -7 -5 -14 4 -10 1 -13 -9 -9 -8 3 -21 0
-29 -7 -18 -15 -18 -11 -4 85 5 39 10 228 11 420 0 193 3 353 5 358 2 4 10 7
16 6 9 0 9 -2 0 -6z m-36 -433 c-3 -219 -9 -369 -17 -411 l-13 -67 -41 -5
c-67 -9 -126 3 -136 27 -9 20 -9 20 -11 1 -2 -11 -6 32 -9 95 l-6 115 -2 -108
c-2 -82 -5 -108 -14 -104 -7 2 -13 12 -13 23 0 10 4 177 8 369 l9 350 26 39
27 39 3 -77 c2 -45 7 -74 12 -71 6 4 10 -21 11 -62 0 -37 5 -90 9 -118 9 -50
6 72 -5 275 -3 53 -2 78 4 65 8 -19 9 -18 12 5 7 44 22 23 41 -57 19 -77 19
-81 -1 -259 -16 -138 -19 -194 -11 -233 14 -75 41 -120 85 -143 20 -11 20 -11
0 11 -31 35 -32 143 -4 282 17 85 24 153 25 264 1 83 3 159 5 170 8 55 10
-105 6 -415z m159 362 c56 -85 217 -313 305 -433 75 -101 109 -161 109 -193 0
-12 -4 -12 -31 1 -39 19 -95 12 -166 -23 -59 -28 -110 -80 -154 -159 -17 -30
-34 -55 -37 -55 -4 0 -24 60 -45 133 l-38 132 0 240 c1 174 -3 259 -14 310 -8
38 -15 72 -15 75 0 3 13 -18 29 -45 28 -49 224 -280 272 -320 25 -21 -13 24
-123 147 -65 72 -82 98 -55 82 6 -4 4 2 -7 14 -10 12 -23 20 -28 19 -6 -1 -13
4 -16 12 -3 9 0 11 9 6 8 -5 11 -4 6 1 -5 5 -14 9 -19 9 -6 0 -13 6 -16 14 -3
9 0 11 8 6 9 -5 11 -4 6 4 -4 6 -11 9 -16 6 -12 -8 -33 33 -26 51 3 9 1 12 -4
9 -11 -7 -14 8 -4 18 12 12 33 -6 70 -61z m-418 -68 c-38 -34 -58 -43 -58 -24
0 13 81 72 89 64 3 -3 -11 -21 -31 -40z m-130 -333 c-96 -234 -125 -297 -132
-282 -6 14 20 88 104 293 100 241 133 308 147 294 3 -2 -51 -139 -119 -305z
m125 8 l-6 -266 -74 -7 c-40 -3 -89 -13 -110 -21 -20 -8 -38 -14 -40 -12 -1 2
50 132 114 290 65 157 118 285 120 284 1 -2 -1 -122 -4 -268z m382 -302 c12
-42 12 -47 -6 -63 -10 -9 -21 -15 -24 -12 -3 2 -2 33 1 67 4 34 9 60 11 57 2
-2 10 -24 18 -49z m-96 -123 c-36 -20 -48 -16 -19 5 13 11 29 17 34 14 5 -3
-2 -12 -15 -19z"/>
<path d="M2242 3920 c0 -14 2 -19 5 -12 2 6 2 18 0 25 -3 6 -5 1 -5 -13z"/>
<path d="M2380 3930 c-6 -11 -8 -20 -6 -20 3 0 10 9 16 20 6 11 8 20 6 20 -3
0 -10 -9 -16 -20z"/>
<path d="M2385 3899 c-4 -6 -4 -13 -1 -16 3 -4 6 -1 6 6 0 7 5 9 12 5 7 -4 8
-3 4 4 -9 15 -13 15 -21 1z"/>
<path d="M2121 3938 c0 -15 -8 -33 -16 -42 -9 -9 -11 -17 -5 -21 13 -8 32 42
27 69 -3 16 -5 15 -6 -6z"/>
<path d="M1980 3895 c0 -5 4 -16 9 -23 6 -11 10 -10 15 4 3 9 4 19 1 22 -3 3
-5 -1 -5 -9 0 -11 -2 -11 -10 1 -5 8 -10 11 -10 5z"/>
<path d="M1940 3849 c0 -5 -5 -7 -12 -3 -7 4 -8 3 -4 -5 6 -9 11 -9 22 0 17
14 18 19 4 19 -5 0 -10 -5 -10 -11z"/>
<path d="M2032 3840 c0 -14 2 -19 5 -12 2 6 2 18 0 25 -3 6 -5 1 -5 -13z"/>
<path d="M2007 3829 c4 -13 8 -18 11 -10 2 7 -1 18 -6 23 -8 8 -9 4 -5 -13z"/>
<path d="M1956 3768 c3 -5 10 -6 15 -3 13 9 11 12 -6 12 -8 0 -12 -4 -9 -9z"/>
<path d="M3376 3535 c-9 -26 -7 -32 5 -12 6 10 9 21 6 23 -2 3 -7 -2 -11 -11z"/>
<path d="M3346 3465 c-9 -26 -7 -32 5 -12 6 10 9 21 6 23 -2 3 -7 -2 -11 -11z"/>
<path d="M2697 3823 c-4 -3 -7 -15 -7 -25 0 -14 6 -19 22 -16 13 2 23 10 24
18 0 9 -1 10 -3 3 -6 -18 -33 -16 -33 1 0 8 6 17 13 19 6 3 7 6 1 6 -6 1 -14
-2 -17 -6z"/>
<path d="M1900 3729 c0 -5 9 -9 20 -9 11 0 20 2 20 4 0 2 -9 6 -20 9 -11 3
-20 1 -20 -4z"/>
<path d="M1860 3720 c8 -5 20 -10 25 -10 6 0 3 5 -5 10 -8 5 -19 10 -25 10 -5
0 -3 -5 5 -10z"/>
<path d="M1918 3703 c6 -2 18 -2 25 0 6 3 1 5 -13 5 -14 0 -19 -2 -12 -5z"/>
<path d="M2495 3620 c-17 -19 -17 -19 9 -7 14 7 26 15 26 20 0 13 -17 7 -35
-13z"/>
<path d="M2410 3510 c0 -5 5 -10 11 -10 5 0 7 5 4 10 -3 6 -8 10 -11 10 -2 0
-4 -4 -4 -10z"/>
<path d="M3160 3578 c-15 -21 -17 -28 -6 -19 16 13 41 51 33 51 -2 0 -14 -15
-27 -32z"/>
<path d="M3089 3533 c-13 -16 -12 -17 4 -4 16 13 21 21 13 21 -2 0 -10 -8 -17
-17z"/>
<path d="M3057 3488 c-62 -101 -85 -144 -80 -151 3 -4 11 0 18 10 7 10 11 21
9 25 -3 5 -1 8 4 8 5 0 9 6 9 13 0 6 14 36 31 65 17 28 29 52 27 52 -3 0 -11
-10 -18 -22z"/>
<path d="M2994 3428 c-4 -7 -14 -24 -22 -38 -14 -24 -13 -24 3 -5 20 24 37 55
31 55 -3 0 -8 -6 -12 -12z"/>
<path d="M1945 3629 c-4 -5 -2 -15 2 -23 6 -11 11 -10 24 8 16 21 16 22 -2 23
-10 1 -21 -2 -24 -8z"/>
<path d="M2810 3594 c5 -22 11 -50 13 -64 3 -14 3 0 0 30 -2 30 -8 59 -13 64
-5 5 -5 -8 0 -30z"/>
<path d="M2870 3380 c0 -6 4 -9 8 -6 5 3 7 -16 5 -42 -3 -26 0 -58 6 -72 8
-20 10 -10 8 49 -1 49 -6 76 -14 79 -7 2 -13 -1 -13 -8z"/>
<path d="M2300 3586 c0 -2 7 -7 16 -10 8 -3 12 -2 9 4 -6 10 -25 14 -25 6z"/>
<path d="M2298 3553 c7 -3 16 -2 19 1 4 3 -2 6 -13 5 -11 0 -14 -3 -6 -6z"/>
<path d="M2590 3598 c0 -4 4 -8 9 -8 6 0 12 4 15 8 3 5 -1 9 -9 9 -8 0 -15 -4
-15 -9z"/>
<path d="M2557 3593 c-12 -12 -7 -23 11 -23 13 0 14 2 3 9 -11 7 -11 9 0 14 8
3 9 6 3 6 -6 1 -14 -2 -17 -6z"/>
<path d="M2618 3493 c7 -3 16 -2 19 1 4 3 -2 6 -13 5 -11 0 -14 -3 -6 -6z"/>
<path d="M1737 3333 c-4 -3 -7 -11 -7 -17 0 -6 5 -5 12 2 6 6 9 14 7 17 -3 3
-9 2 -12 -2z"/>
<path d="M2161 3284 c0 -11 3 -14 6 -6 3 7 2 16 -1 19 -3 4 -6 -2 -5 -13z"/>
<path d="M2452 3311 c-11 -7 -11 -9 1 -14 16 -6 27 0 27 15 0 10 -11 10 -28
-1z"/>
<path d="M2281 3300 c14 -31 19 -36 19 -24 0 6 -7 19 -16 30 -14 18 -14 18 -3
-6z"/>
<path d="M2266 3248 c3 -4 9 -8 15 -8 5 0 9 4 9 8 0 5 -7 9 -15 9 -8 0 -12 -4
-9 -9z"/>
<path d="M3338 3273 c6 -2 18 -2 25 0 6 3 1 5 -13 5 -14 0 -19 -2 -12 -5z"/>
<path d="M3278 3263 c6 -2 18 -2 25 0 6 3 1 5 -13 5 -14 0 -19 -2 -12 -5z"/>
<path d="M3398 3243 c6 -2 18 -2 25 0 6 3 1 5 -13 5 -14 0 -19 -2 -12 -5z"/>
<path d="M2039 3251 c6 -10 7 -22 3 -26 -4 -5 -1 -5 6 -1 9 5 9 12 2 27 -6 10
-13 19 -16 19 -2 0 0 -8 5 -19z"/>
<path d="M2485 3220 c-3 -5 -1 -10 4 -10 6 0 11 5 11 10 0 6 -2 10 -4 10 -3 0
-8 -4 -11 -10z"/>
<path d="M2430 3189 c0 -5 -4 -7 -10 -4 -5 3 -10 1 -10 -4 0 -6 7 -11 15 -11
8 0 15 7 15 15 0 8 -2 15 -5 15 -3 0 -5 -5 -5 -11z"/>
<path d="M2470 3166 c0 -9 30 -14 35 -6 4 6 -3 10 -14 10 -12 0 -21 -2 -21 -4z"/>
<path d="M2971 3116 c2 -2 15 -9 29 -15 24 -11 24 -11 6 3 -16 13 -49 24 -35
12z"/>
<path d="M2975 3083 c6 -6 30 -28 55 -49 30 -25 37 -29 20 -10 -14 15 -38 37
-55 49 -16 11 -25 16 -20 10z"/>
<path d="M2161 2988 c-1 -9 -11 -19 -23 -21 -22 -4 -22 -4 -2 -6 12 0 30 7 41
17 10 9 14 13 7 9 -7 -5 -14 -2 -17 5 -4 9 -6 7 -6 -4z"/>
<path d="M2391 3090 c14 -31 19 -36 19 -24 0 6 -7 19 -16 30 -14 18 -14 18 -3
-6z"/>
<path d="M2382 3030 c0 -19 2 -27 5 -17 2 9 2 25 0 35 -3 9 -5 1 -5 -18z"/>
<path d="M1950 3056 c0 -2 8 -10 18 -17 15 -13 16 -12 3 4 -13 16 -21 21 -21
13z"/>
<path d="M2296 2827 c3 -10 9 -15 12 -12 3 3 0 11 -7 18 -10 9 -11 8 -5 -6z"/>
<path d="M1707 2819 c7 -7 15 -10 18 -7 3 3 -2 9 -12 12 -14 6 -15 5 -6 -5z"/>
<path d="M2593 2743 c9 -2 23 -2 30 0 6 3 -1 5 -18 5 -16 0 -22 -2 -12 -5z"/>
<path d="M2653 2733 c9 -2 23 -2 30 0 6 3 -1 5 -18 5 -16 0 -22 -2 -12 -5z"/>
<path d="M2871 2766 c10 -9 69 -36 69 -32 0 6 -55 36 -66 36 -4 0 -5 -2 -3 -4z"/>
<path d="M2309 2403 c-13 -16 -12 -17 4 -4 9 7 17 15 17 17 0 8 -8 3 -21 -13z"/>
<path d="M2687 2453 c-4 -3 -7 -13 -7 -22 1 -13 3 -13 11 2 11 19 8 33 -4 20z"/>
<path d="M2502 2360 c0 -19 2 -27 5 -17 2 9 2 25 0 35 -3 9 -5 1 -5 -18z"/>
<path d="M2939 1902 c5 -8 16 -17 25 -18 12 -2 14 2 7 14 -5 8 -16 17 -25 18
-12 2 -14 -2 -7 -14z"/>
<path d="M2964 1862 c4 -3 14 -7 22 -8 9 -1 13 0 10 4 -4 3 -14 7 -22 8 -9 1
-13 0 -10 -4z"/>
<path d="M3061 1850 c14 -31 19 -36 19 -24 0 6 -7 19 -16 30 -14 18 -14 18 -3
-6z"/>
<path d="M1825 3850 c3 -5 8 -10 11 -10 2 0 4 5 4 10 0 6 -5 10 -11 10 -5 0
-7 -4 -4 -10z"/>
<path d="M2593 1435 c-99 -42 -85 -228 18 -249 71 -14 129 46 129 134 0 93
-70 148 -147 115z m89 -38 c6 -12 12 -49 12 -82 0 -64 -13 -99 -44 -115 -44
-23 -75 24 -75 115 0 91 31 136 77 113 10 -5 23 -18 30 -31z"/>
<path d="M3093 1435 c-40 -17 -63 -61 -63 -122 0 -59 29 -110 66 -119 24 -6
25 -8 11 -19 -14 -10 -8 -15 37 -38 59 -30 76 -33 94 -15 17 17 15 58 -2 58
-22 0 -28 -18 -10 -28 9 -5 13 -12 8 -15 -5 -3 -29 5 -54 18 l-45 23 37 15
c22 9 43 28 53 48 19 36 22 118 5 149 -24 44 -88 66 -137 45z m95 -51 c24 -70
-1 -177 -45 -191 -19 -7 -54 32 -63 72 -31 129 68 237 108 119z"/>
<path d="M1113 1433 c15 -4 17 -18 17 -118 0 -100 -2 -114 -17 -118 -10 -3 7
-5 37 -5 30 0 47 2 38 5 -14 4 -18 15 -18 59 l0 54 50 0 50 0 0 -54 c0 -44 -4
-55 -17 -59 -10 -3 7 -5 37 -5 30 0 47 2 38 5 -16 4 -18 18 -18 118 0 100 2
114 18 118 9 3 -8 5 -38 5 -30 0 -47 -2 -37 -5 15 -4 17 -13 15 -56 l-3 -52
-45 0 -45 0 -3 52 c-2 43 0 52 15 56 10 3 -7 5 -37 5 -30 0 -47 -2 -37 -5z"/>
<path d="M1415 1328 c-21 -62 -44 -119 -53 -125 -13 -11 -11 -13 19 -12 19 1
26 3 17 6 -14 3 -15 9 -6 34 9 25 15 29 49 29 34 0 41 -4 50 -27 7 -20 6 -28
-3 -35 -8 -4 7 -8 36 -8 42 0 47 2 34 13 -8 6 -32 63 -54 125 -21 61 -41 112
-45 112 -4 0 -24 -51 -44 -112z m54 -40 c1 -14 -7 -18 -30 -18 -28 0 -31 2
-25 25 3 13 11 37 17 52 l11 28 13 -35 c8 -19 14 -43 14 -52z"/>
<path d="M1593 1433 c15 -4 17 -18 17 -118 0 -100 -2 -114 -17 -118 -10 -3 7
-5 37 -5 30 0 47 2 38 5 -14 3 -18 15 -18 49 0 40 2 44 25 44 63 0 109 56 87
106 -15 32 -50 44 -125 43 -34 -1 -54 -3 -44 -6z m111 -19 c35 -35 11 -114
-35 -114 -17 0 -19 7 -19 65 0 58 2 65 19 65 11 0 27 -7 35 -16z"/>
<path d="M1803 1434 c15 -5 17 -20 17 -119 0 -100 -2 -114 -17 -118 -10 -3 7
-5 37 -5 30 0 47 2 38 5 -14 3 -18 15 -18 49 0 41 2 44 25 44 79 0 125 79 74
126 -16 14 -38 19 -97 21 -43 1 -69 0 -59 -3z m108 -14 c14 -8 19 -21 19 -55
0 -34 -5 -47 -19 -55 -42 -22 -51 -14 -51 48 0 74 8 84 51 62z"/>
<path d="M1992 1433 c9 -2 33 -33 52 -68 28 -49 36 -75 36 -113 0 -31 -5 -52
-12 -55 -7 -3 10 -5 37 -5 28 0 44 2 38 5 -36 14 0 197 44 231 14 10 12 12
-18 11 -19 -1 -26 -3 -17 -6 16 -4 15 -9 -8 -55 l-26 -51 -29 49 c-25 44 -26
50 -11 56 9 4 -10 6 -43 6 -33 0 -52 -2 -43 -5z"/>
<path d="M2308 1433 c8 -3 12 -37 12 -118 0 -81 -4 -115 -12 -118 -7 -3 17 -6
54 -6 37 -1 79 4 93 11 47 21 46 102 -1 114 l-26 7 27 21 c33 27 31 65 -5 83
-14 7 -54 12 -90 12 -36 0 -59 -3 -52 -6z m108 -11 c34 -23 15 -92 -26 -92
-17 0 -20 7 -20 50 0 41 3 50 18 50 9 0 22 -4 28 -8z m14 -122 c11 -11 20 -29
20 -40 0 -11 -9 -29 -20 -40 -11 -11 -29 -20 -40 -20 -18 0 -20 7 -20 60 0 53
2 60 20 60 11 0 29 -9 40 -20z"/>
<path d="M2783 1433 c15 -4 17 -18 17 -107 0 -122 10 -138 85 -140 72 -2 87
21 93 141 3 55 10 101 16 105 6 4 -5 7 -24 7 -19 0 -29 -3 -22 -6 15 -6 17
-185 2 -214 -8 -14 -21 -19 -50 -19 -52 0 -60 17 -60 134 0 82 2 95 18 99 9 3
-8 5 -38 5 -30 0 -47 -2 -37 -5z"/>
<path d="M3283 1433 c15 -4 17 -17 17 -99 0 -53 5 -104 10 -114 14 -27 79 -43
117 -29 42 14 53 46 53 149 0 61 4 90 13 93 6 3 -4 5 -23 5 -19 0 -27 -2 -16
-5 17 -4 18 -14 14 -103 -4 -110 -14 -130 -64 -130 -51 0 -64 27 -64 136 0 80
2 93 18 97 9 3 -8 5 -38 5 -30 0 -47 -2 -37 -5z"/>
<path d="M3538 1433 c8 -3 12 -37 12 -118 0 -81 -4 -115 -12 -119 -7 -2 28 -4
77 -3 l90 2 3 35 3 35 -20 -32 c-17 -27 -27 -33 -56 -33 l-35 0 0 55 c0 49 2
55 20 55 12 0 24 -10 30 -22 7 -18 9 -11 9 32 1 51 0 53 -12 30 -7 -14 -20
-26 -30 -28 -14 -3 -17 5 -17 52 0 56 0 56 30 56 23 0 35 -7 50 -32 l20 -33 0
38 0 37 -87 -1 c-49 0 -82 -3 -75 -6z"/>
<path d="M3730 1400 c0 -22 2 -40 5 -40 3 0 11 16 19 35 10 24 22 35 35 35 20
0 21 -6 21 -114 0 -101 -2 -115 -17 -119 -10 -3 7 -5 37 -5 30 0 47 2 38 5
-16 4 -18 18 -18 119 0 108 1 114 21 114 13 0 25 -11 35 -35 8 -19 16 -35 19
-35 3 0 5 18 5 40 l0 40 -100 0 -100 0 0 -40z"/>
</g>
</svg>
