<?xml version="1.0" standalone="no"?>
<!DOCTYPE svg PUBLIC "-//W3C//DTD SVG 20010904//EN"
 "http://www.w3.org/TR/2001/REC-SVG-20010904/DTD/svg10.dtd">
<svg version="1.0" xmlns="http://www.w3.org/2000/svg"
 width="512.000000pt" height="512.000000pt" viewBox="0 0 512.000000 512.000000"
 preserveAspectRatio="xMidYMid meet">

<g transform="translate(0.000000,512.000000) scale(0.100000,-0.100000)"
fill="#000000" stroke="none">
<path d="M2467 5110 c-94 -24 -169 -78 -237 -171 -63 -86 -116 -126 -178 -134
-190 -23 -256 -49 -338 -138 l-55 -59 -92 -2 c-78 -1 -100 -5 -142 -28 -57
-30 -104 -73 -147 -135 -34 -51 -92 -83 -147 -83 -21 0 -69 -9 -107 -21 -56
-17 -77 -31 -124 -78 -104 -104 -127 -226 -69 -369 20 -48 32 -94 31 -122 0
-60 -42 -148 -88 -184 -62 -49 -64 -63 -64 -382 0 -243 2 -291 16 -320 26 -54
68 -78 144 -82 l65 -4 420 -631 c231 -347 419 -638 418 -646 -1 -9 -5 -36 -8
-61 -5 -36 3 -83 40 -225 47 -181 61 -217 97 -245 18 -15 17 -24 -58 -345 -84
-365 -87 -391 -40 -482 61 -122 203 -188 326 -153 19 5 60 26 91 45 74 45 114
46 177 3 59 -41 105 -57 163 -58 58 0 101 15 164 57 68 45 113 45 177 -1 93
-65 201 -73 299 -20 96 53 152 148 152 258 0 28 -33 192 -74 363 l-73 313 26
27 c37 40 40 49 93 256 47 182 48 190 34 230 l-15 42 208 313 c114 172 208
321 208 330 0 25 -28 62 -54 71 -50 19 -66 1 -290 -335 l-216 -324 -259 0
c-255 0 -260 0 -286 -22 -32 -28 -37 -79 -10 -108 17 -19 31 -20 292 -20 257
0 274 -1 269 -17 -2 -10 -19 -72 -36 -138 -17 -66 -33 -128 -36 -137 -5 -17
-34 -18 -423 -18 l-419 0 -10 40 -10 40 404 0 c391 0 405 1 424 20 11 11 20
33 20 50 0 17 -9 39 -20 50 -19 19 -33 20 -443 20 l-424 0 -10 45 -10 45 128
0 c116 0 131 2 149 20 28 28 26 75 -5 105 l-24 25 -268 0 -268 1 -403 605
c-222 333 -402 608 -399 610 2 2 652 3 1445 2 l1442 -3 -125 -188 c-69 -104
-125 -196 -125 -206 0 -10 9 -30 21 -45 20 -25 57 -34 92 -20 8 3 84 109 167
235 l153 229 57 0 c63 0 106 22 144 73 20 27 21 40 21 330 0 336 -2 345 -68
388 -37 24 -87 128 -87 178 0 17 14 65 32 108 26 63 32 92 32 153 1 66 -3 84
-32 142 -55 112 -142 169 -285 187 -92 11 -113 23 -166 95 -85 114 -175 161
-301 154 l-75 -4 -30 40 c-68 90 -164 138 -308 154 -110 12 -162 41 -216 121
-54 79 -131 146 -199 172 -64 24 -185 34 -245 19z m212 -172 c26 -14 60 -43
78 -69 113 -154 186 -202 338 -220 102 -12 157 -33 199 -75 80 -81 93 -183 38
-301 -66 -143 -65 -250 0 -390 58 -122 41 -235 -48 -312 -47 -42 -72 -51 -169
-62 -156 -18 -237 -64 -328 -185 -28 -38 -58 -75 -67 -82 -65 -56 -191 -69
-270 -28 -25 12 -59 42 -77 67 -125 170 -191 207 -415 234 -90 11 -180 99
-194 191 -10 66 -1 111 37 189 32 67 34 76 34 180 0 106 -1 113 -37 191 -43
91 -49 158 -23 221 41 98 114 147 236 158 150 14 236 63 326 182 32 42 70 85
84 95 71 53 174 59 258 16z m-1076 -511 c-7 -48 13 -143 47 -214 16 -35 32
-79 36 -98 l6 -34 -38 11 c-21 5 -70 8 -108 6 -121 -6 -214 -68 -273 -180 -24
-46 -28 -64 -28 -143 0 -73 4 -98 23 -136 36 -74 87 -125 159 -161 57 -28 77
-32 137 -32 39 1 90 8 113 16 41 15 43 15 63 -7 40 -42 134 -84 221 -99 63
-10 74 -14 43 -15 -106 -3 -194 -52 -273 -155 -54 -69 -99 -96 -159 -96 -59 0
-104 21 -138 66 -99 129 -160 168 -287 184 -112 14 -150 38 -182 113 -22 54
-19 90 17 170 27 62 32 84 32 152 0 69 -5 90 -33 154 -39 88 -39 138 2 200 32
48 71 67 170 80 121 17 187 59 271 175 33 44 94 75 148 76 36 0 37 -1 31 -33z
m2034 12 c30 -15 56 -39 82 -78 65 -95 146 -141 270 -155 36 -4 77 -14 92 -21
39 -21 77 -70 90 -117 11 -43 11 -44 -46 -198 -25 -66 -16 -167 21 -250 35
-78 36 -131 5 -186 -33 -59 -75 -82 -165 -94 -127 -16 -197 -58 -276 -166 -44
-58 -89 -84 -149 -84 -59 0 -103 21 -142 70 -107 133 -158 166 -276 179 l-68
7 68 7 c89 10 165 39 225 86 44 35 49 37 77 25 56 -23 120 -26 187 -10 202 52
309 263 228 451 -26 60 -93 131 -155 163 -57 29 -182 42 -234 24 -29 -10 -31
-10 -31 15 0 14 17 62 37 107 30 67 37 96 41 164 l5 82 35 0 c20 0 55 -9 79
-21z m-2001 -502 c4 -4 -1 -32 -11 -63 -16 -51 -18 -159 -3 -249 3 -17 -3 -20
-46 -23 -61 -4 -98 11 -136 54 -78 89 -57 212 45 272 32 18 51 22 92 19 29 -2
56 -7 59 -10z m2005 -10 c110 -58 121 -219 21 -295 -27 -20 -48 -27 -100 -30
l-65 -5 7 29 c24 100 17 202 -20 298 -12 32 97 34 157 3z m-2649 -707 c26 -11
81 -25 124 -30 93 -12 122 -30 184 -114 29 -39 65 -73 100 -93 l54 -33 -297 0
-297 0 0 187 0 187 43 -41 c23 -23 63 -51 89 -63z m3278 -85 l0 -185 -302 0
c-262 1 -299 3 -272 14 43 19 99 71 145 133 49 65 83 83 178 94 87 10 161 43
211 94 18 19 35 35 37 35 2 0 3 -83 3 -185z m-2040 81 c11 -19 45 -57 75 -85
172 -157 451 -121 586 75 l30 44 50 -26 c32 -16 79 -28 131 -34 89 -10 114
-22 155 -76 62 -80 89 -107 137 -135 l51 -29 -885 1 c-551 0 -876 4 -862 9 50
21 111 71 147 125 51 74 88 95 182 106 47 5 94 18 122 32 60 32 56 32 81 -7z
m39 -2438 c-36 -112 -56 -191 -52 -206 11 -46 78 -68 119 -38 13 10 41 82 84
218 l66 203 76 3 77 3 65 -204 c38 -117 74 -211 84 -220 41 -37 122 -3 122 51
0 14 -25 101 -55 194 -30 93 -55 171 -55 174 0 2 57 3 127 2 l128 -3 72 -305
c40 -168 72 -327 72 -354 1 -60 -26 -107 -73 -130 -51 -24 -86 -20 -141 17
-77 51 -106 60 -188 55 -66 -3 -80 -7 -132 -42 -77 -51 -118 -56 -170 -20 -70
48 -116 64 -186 64 -67 0 -82 -5 -194 -70 -33 -19 -48 -22 -80 -16 -48 9 -102
62 -110 110 -5 24 15 127 69 358 42 179 76 328 76 331 0 4 58 7 129 7 l129 0
-59 -182z"/>
<path d="M2459 4476 c-119 -33 -217 -118 -272 -234 -29 -61 -32 -76 -32 -162
1 -75 5 -107 24 -153 70 -176 260 -288 438 -259 184 31 320 164 354 346 28
155 -59 338 -201 419 -91 52 -214 69 -311 43z m182 -152 c67 -20 148 -97 167
-160 54 -181 -63 -343 -247 -344 -80 0 -134 24 -190 85 -109 118 -81 309 58
392 76 45 127 52 212 27z"/>
</g>
</svg>
