<?xml version="1.0" standalone="no"?>
<!DOCTYPE svg PUBLIC "-//W3C//DTD SVG 20010904//EN"
 "http://www.w3.org/TR/2001/REC-SVG-20010904/DTD/svg10.dtd">
<svg version="1.0" xmlns="http://www.w3.org/2000/svg"
 width="512.000000pt" height="512.000000pt" viewBox="0 0 512.000000 512.000000"
 preserveAspectRatio="xMidYMid meet">

<g transform="translate(0.000000,512.000000) scale(0.100000,-0.100000)"
fill="#000000" stroke="none">
<path d="M2497 5105 c-57 -21 -118 -66 -152 -111 -28 -38 -34 -41 -91 -47 -82
-8 -138 -32 -154 -65 -7 -15 -15 -61 -18 -104 l-4 -76 -37 -7 c-47 -8 -80 -30
-91 -60 l-9 -25 -52 26 c-29 15 -76 28 -109 31 -51 5 -65 2 -104 -21 -56 -32
-110 -96 -132 -153 -10 -26 -23 -43 -33 -43 -29 0 -139 -58 -150 -79 -14 -25
-14 -105 -1 -151 9 -31 8 -37 -11 -50 -56 -39 -79 -69 -79 -103 l0 -34 -52 8
c-41 7 -60 5 -92 -10 -50 -22 -121 -98 -147 -157 -12 -27 -27 -44 -37 -44 -26
-1 -97 -35 -121 -59 -16 -16 -21 -34 -21 -79 0 -31 4 -71 9 -88 8 -28 6 -32
-26 -49 -63 -34 -75 -84 -48 -210 18 -84 52 -156 100 -213 l37 -42 -26 -31
c-26 -30 -31 -55 -27 -114 6 -62 172 -479 211 -527 25 -32 86 -30 112 2 27 33
21 61 -49 220 -78 178 -128 319 -117 329 20 19 316 94 529 135 822 157 1605
134 2436 -74 178 -45 209 -55 209 -71 0 -32 -114 -309 -195 -474 -144 -292
-282 -493 -466 -678 -100 -100 -110 -107 -136 -100 -15 4 -73 8 -128 7 -83 -1
-113 -5 -175 -29 -101 -37 -168 -72 -275 -142 -87 -57 -91 -58 -125 -46 -45
15 -135 15 -180 -1 -34 -12 -37 -10 -120 45 -103 68 -201 118 -295 150 -55 19
-91 24 -170 24 -55 0 -109 -3 -120 -8 -44 -15 -251 207 -405 434 -78 115 -92
129 -131 129 -29 0 -69 -44 -69 -76 0 -57 214 -345 373 -502 l84 -84 -34 -66
c-95 -188 -81 -506 29 -660 38 -53 124 -109 179 -118 66 -11 67 -15 20 -95
-49 -85 -51 -121 -8 -153 24 -17 32 -19 68 -9 22 6 39 8 37 4 -2 -3 -23 -45
-47 -92 -91 -182 -67 -236 143 -319 364 -144 865 -127 1196 40 66 34 89 57
100 104 9 42 -19 132 -70 222 -28 48 -30 56 -14 50 47 -19 79 -18 107 4 38 30
35 64 -15 149 -46 80 -45 84 21 95 55 9 141 65 179 118 110 154 124 473 29
658 l-33 65 110 115 c267 277 471 618 636 1065 64 172 68 222 24 275 l-27 31
25 27 c69 73 112 176 123 290 9 82 -6 119 -58 147 -32 17 -34 21 -26 49 5 17
9 57 9 88 0 45 -5 63 -21 79 -24 24 -95 58 -121 59 -10 0 -25 17 -37 44 -26
59 -97 135 -147 157 -32 15 -51 17 -92 10 l-52 -8 0 34 c0 34 -23 64 -79 103
-19 13 -20 19 -11 50 13 46 13 126 -1 151 -11 21 -121 79 -150 79 -10 0 -23
17 -33 43 -22 57 -76 121 -132 153 -39 23 -53 26 -104 21 -33 -3 -80 -16 -109
-31 l-52 -26 -9 25 c-11 30 -44 52 -91 60 l-37 7 -4 76 c-3 43 -11 89 -18 104
-16 33 -68 55 -153 64 -57 6 -66 10 -81 35 -24 41 -98 98 -156 120 -58 22 -81
23 -133 4z m92 -4352 c55 -114 157 -241 271 -339 57 -49 82 -64 106 -64 43 0
72 27 82 75 l8 40 36 -65 c65 -116 65 -114 0 -143 -246 -109 -584 -135 -870
-67 -99 24 -242 79 -249 96 -4 12 40 106 75 157 l19 28 6 -43 c7 -51 35 -78
81 -78 59 0 223 158 323 312 27 41 55 89 62 106 8 18 16 32 20 32 4 0 17 -21
30 -47z"/>
</g>
</svg>
